<svg width="50" height="50" viewBox="0 0 50 50" fill="none" xmlns="http://www.w3.org/2000/svg">
<path d="M37.4615 39.01C34.6086 35.2447 30.0883 32.8125 25 32.8125C19.9117 32.8125 15.3914 35.2447 12.5385 39.01M37.4615 39.01C41.3198 35.5757 43.75 30.5717 43.75 25C43.75 14.6447 35.3553 6.25 25 6.25C14.6447 6.25 6.25 14.6447 6.25 25C6.25 30.5717 8.68021 35.5757 12.5385 39.01M37.4615 39.01C34.1489 41.9586 29.7837 43.75 25 43.75C20.2163 43.75 15.8511 41.9586 12.5385 39.01M31.25 20.3125C31.25 23.7643 28.4518 26.5625 25 26.5625C21.5482 26.5625 18.75 23.7643 18.75 20.3125C18.75 16.8607 21.5482 14.0625 25 14.0625C28.4518 14.0625 31.25 16.8607 31.25 20.3125Z" stroke="black" style="stroke:black;stroke-opacity:1;" stroke-width="1.5" stroke-linecap="round" stroke-linejoin="round"/>
</svg>
